<?xml version="1.0" encoding="utf-8"?><svg xmlns="http://www.w3.org/2000/svg" xmlns:xlink="http://www.w3.org/1999/xlink"><symbol viewBox="0 0 344.96 344.96" id="check" xmlns="http://www.w3.org/2000/svg"><g data-name="Слой 2"><path d="M321.85 86.24l-40-23.11-23.1-40H212.5L172.48 0l-40 23.11H86.24l-23.11 40-40 23.1v46.21L0 172.48l23.11 40v46.21l40 23.11 23.11 40h46.21l40 23.1 40-23.11h46.21l23.11-40 40-23.11V212.5l23.11-40-23.11-40V86.24zM156.91 243.07a16.79 16.79 0 01-23.34 0l-50.45-50.44a16.19 16.19 0 010-22.89l13.35-13.35a16.19 16.19 0 0122.89 0l25.87 25.87 80.34-80.35a16.19 16.19 0 0122.89 0l13.35 13.35a16.19 16.19 0 010 22.89z" data-name="Capa 1"/></g></symbol><symbol viewBox="0 0 22 18" id="quotes" xmlns="http://www.w3.org/2000/svg"><path d="M0 18c3.052-.649 5.315-2.068 6.789-4.257C8.263 11.554 9 8.622 9 4.946V0H0v10.865h2.25c-.103.81-.31 1.432-.62 1.865-.311.432-.854.865-1.63 1.297zm13 0c3.052-.649 5.315-2.068 6.789-4.257C21.263 11.554 22 8.622 22 4.946V0h-9v10.865h2.25c-.259 1.405-1.009 2.46-2.25 3.162z"/></symbol></svg>