<svg xmlns="http://www.w3.org/2000/svg" width="21" height="21" viewBox="0 0 21 21"><g><g clip-path="url(#clip-86005131-A401-4198-84FD-1FF1D9280A4A)"><path fill="#febf00" d="M20.945 7.626a1.115 1.115 0 0 0-.96-.77l-6.062-.552L11.526.68A1.116 1.116 0 0 0 9.474.68L7.077 6.304l-6.062.552A1.12 1.12 0 0 0 .38 8.814l4.582 4.03-1.351 5.967A1.12 1.12 0 0 0 4.7 20.18c.198 0 .395-.054.572-.16l5.228-3.133 5.226 3.133c.383.23.865.21 1.227-.054.364-.264.533-.717.434-1.155l-1.35-5.967 4.58-4.029c.338-.295.466-.762.328-1.19z"/></g></g></svg>